<?xml version="1.0" encoding="UTF-8" standalone="no"?>
<svg width="814px" height="270px" viewBox="0 0 814 270" version="1.1" xmlns="http://www.w3.org/2000/svg" xmlns:xlink="http://www.w3.org/1999/xlink" xmlns:sketch="http://www.bohemiancoding.com/sketch/ns">
    <title>glue</title>
    <description>Created with Sketch (http://www.bohemiancoding.com/sketch)</description>
    <defs></defs>
    <g id="Page-1" stroke="none" stroke-width="1" fill="none" fill-rule="evenodd" sketch:type="MSPage">
        <rect d="M4.99166254,0 C2.23484344,0 0,2.23300914 0,5.00460985 L0,264.99539 C0,267.75936 2.2477966,270 4.99166254,270 L525.008337,270 C527.765157,270 530,267.766991 530,264.99539 L530,5.00460985 C530,2.24064015 527.752203,0 525.008337,0 L4.99166254,0 Z M4.99166254,0" id="Rectangle-1" fill="#31DCB5" sketch:type="MSShapeGroup" x="0" y="0" width="530" height="270" rx="5"></rect>
        <g id="Group" sketch:type="MSLayerGroup" transform="translate(29.000000, 25.000000)">
            <circle d="M25,50 C38.8071194,50 50,38.8071194 50,25 C50,11.1928806 38.8071194,0 25,0 C11.1928806,0 0,11.1928806 0,25 C0,38.8071194 11.1928806,50 25,50 Z M25,50" id="Oval-1" fill="#FFFFFF" sketch:type="MSShapeGroup" cx="25" cy="25" r="25"></circle>
            <circle d="M25,110 C38.8071194,110 50,98.8071194 50,85 C50,71.1928806 38.8071194,60 25,60 C11.1928806,60 0,71.1928806 0,85 C0,98.8071194 11.1928806,110 25,110 Z M25,110" id="Oval-1" fill-opacity="0.5" fill="#FFFFFF" sketch:type="MSShapeGroup" cx="25" cy="85" r="25"></circle>
            <circle d="M25,170 C38.8071194,170 50,158.807119 50,145 C50,131.192881 38.8071194,120 25,120 C11.1928806,120 0,131.192881 0,145 C0,158.807119 11.1928806,170 25,170 Z M25,170" id="Oval-1" fill-opacity="0.2" fill="#FFFFFF" sketch:type="MSShapeGroup" cx="25" cy="145" r="25"></circle>
            <circle d="M85,50 C98.8071194,50 110,38.8071194 110,25 C110,11.1928806 98.8071194,0 85,0 C71.1928806,0 60,11.1928806 60,25 C60,38.8071194 71.1928806,50 85,50 Z M85,50" id="Oval-1" fill="#FFFFFF" sketch:type="MSShapeGroup" cx="85" cy="25" r="25"></circle>
            <circle d="M86,110 C99.8071194,110 111,98.8071194 111,85 C111,71.1928806 99.8071194,60 86,60 C72.1928806,60 61,71.1928806 61,85 C61,98.8071194 72.1928806,110 86,110 Z M86,110" id="Oval-1" fill-opacity="0.5" fill="#FFFFFF" sketch:type="MSShapeGroup" cx="86" cy="85" r="25"></circle>
            <circle d="M85,170 C98.8071194,170 110,158.807119 110,145 C110,131.192881 98.8071194,120 85,120 C71.1928806,120 60,131.192881 60,145 C60,158.807119 71.1928806,170 85,170 Z M85,170" id="Oval-1" fill-opacity="0.2" fill="#FFFFFF" sketch:type="MSShapeGroup" cx="85" cy="145" r="25"></circle>
            <circle d="M145,50 C158.807119,50 170,38.8071194 170,25 C170,11.1928806 158.807119,0 145,0 C131.192881,0 120,11.1928806 120,25 C120,38.8071194 131.192881,50 145,50 Z M145,50" id="Oval-1" fill="#FFFFFF" sketch:type="MSShapeGroup" cx="145" cy="25" r="25"></circle>
            <circle d="M145,110 C158.807119,110 170,98.8071194 170,85 C170,71.1928806 158.807119,60 145,60 C131.192881,60 120,71.1928806 120,85 C120,98.8071194 131.192881,110 145,110 Z M145,110" id="Oval-1" fill-opacity="0.5" fill="#FFFFFF" sketch:type="MSShapeGroup" cx="145" cy="85" r="25"></circle>
            <circle d="M145,170 C158.807119,170 170,158.807119 170,145 C170,131.192881 158.807119,120 145,120 C131.192881,120 120,131.192881 120,145 C120,158.807119 131.192881,170 145,170 Z M145,170" id="Oval-1" fill-opacity="0.2" fill="#FFFFFF" sketch:type="MSShapeGroup" cx="145" cy="145" r="25"></circle>
            <circle d="M205,50 C218.807119,50 230,38.8071194 230,25 C230,11.1928806 218.807119,0 205,0 C191.192881,0 180,11.1928806 180,25 C180,38.8071194 191.192881,50 205,50 Z M205,50" id="Oval-1" fill="#FFFFFF" sketch:type="MSShapeGroup" cx="205" cy="25" r="25"></circle>
            <circle d="M205,110 C218.807119,110 230,98.8071194 230,85 C230,71.1928806 218.807119,60 205,60 C191.192881,60 180,71.1928806 180,85 C180,98.8071194 191.192881,110 205,110 Z M205,110" id="Oval-1" fill-opacity="0.5" fill="#FFFFFF" sketch:type="MSShapeGroup" cx="205" cy="85" r="25"></circle>
            <circle d="M205,170 C218.807119,170 230,158.807119 230,145 C230,131.192881 218.807119,120 205,120 C191.192881,120 180,131.192881 180,145 C180,158.807119 191.192881,170 205,170 Z M205,170" id="Oval-1" fill-opacity="0.2" fill="#FFFFFF" sketch:type="MSShapeGroup" cx="205" cy="145" r="25"></circle>
            <circle d="M265,50 C278.807119,50 290,38.8071194 290,25 C290,11.1928806 278.807119,0 265,0 C251.192881,0 240,11.1928806 240,25 C240,38.8071194 251.192881,50 265,50 Z M265,50" id="Oval-1" fill="#FFFFFF" sketch:type="MSShapeGroup" cx="265" cy="25" r="25"></circle>
            <circle d="M265,110 C278.807119,110 290,98.8071194 290,85 C290,71.1928806 278.807119,60 265,60 C251.192881,60 240,71.1928806 240,85 C240,98.8071194 251.192881,110 265,110 Z M265,110" id="Oval-1" fill-opacity="0.5" fill="#FFFFFF" sketch:type="MSShapeGroup" cx="265" cy="85" r="25"></circle>
            <circle d="M265,170 C278.807119,170 290,158.807119 290,145 C290,131.192881 278.807119,120 265,120 C251.192881,120 240,131.192881 240,145 C240,158.807119 251.192881,170 265,170 Z M265,170" id="Oval-1" fill-opacity="0.2" fill="#FFFFFF" sketch:type="MSShapeGroup" cx="265" cy="145" r="25"></circle>
            <circle d="M325,50 C338.807119,50 350,38.8071194 350,25 C350,11.1928806 338.807119,0 325,0 C311.192881,0 300,11.1928806 300,25 C300,38.8071194 311.192881,50 325,50 Z M325,50" id="Oval-1" fill="#FFFFFF" sketch:type="MSShapeGroup" cx="325" cy="25" r="25"></circle>
            <circle d="M325,110 C338.807119,110 350,98.8071194 350,85 C350,71.1928806 338.807119,60 325,60 C311.192881,60 300,71.1928806 300,85 C300,98.8071194 311.192881,110 325,110 Z M325,110" id="Oval-1" fill-opacity="0.5" fill="#FFFFFF" sketch:type="MSShapeGroup" cx="325" cy="85" r="25"></circle>
            <circle d="M325,170 C338.807119,170 350,158.807119 350,145 C350,131.192881 338.807119,120 325,120 C311.192881,120 300,131.192881 300,145 C300,158.807119 311.192881,170 325,170 Z M325,170" id="Oval-1" fill-opacity="0.2" fill="#FFFFFF" sketch:type="MSShapeGroup" cx="325" cy="145" r="25"></circle>
            <circle d="M385,50 C398.807119,50 410,38.8071194 410,25 C410,11.1928806 398.807119,0 385,0 C371.192881,0 360,11.1928806 360,25 C360,38.8071194 371.192881,50 385,50 Z M385,50" id="Oval-1" fill="#FFFFFF" sketch:type="MSShapeGroup" cx="385" cy="25" r="25"></circle>
            <circle d="M385,110 C398.807119,110 410,98.8071194 410,85 C410,71.1928806 398.807119,60 385,60 C371.192881,60 360,71.1928806 360,85 C360,98.8071194 371.192881,110 385,110 Z M385,110" id="Oval-1" fill-opacity="0.5" fill="#FFFFFF" sketch:type="MSShapeGroup" cx="385" cy="85" r="25"></circle>
            <circle d="M385,170 C398.807119,170 410,158.807119 410,145 C410,131.192881 398.807119,120 385,120 C371.192881,120 360,131.192881 360,145 C360,158.807119 371.192881,170 385,170 Z M385,170" id="Oval-1" fill-opacity="0.2" fill="#FFFFFF" sketch:type="MSShapeGroup" cx="385" cy="145" r="25"></circle>
            <circle d="M445,50 C458.807119,50 470,38.8071194 470,25 C470,11.1928806 458.807119,0 445,0 C431.192881,0 420,11.1928806 420,25 C420,38.8071194 431.192881,50 445,50 Z M445,50" id="Oval-1" fill="#FFFFFF" sketch:type="MSShapeGroup" cx="445" cy="25" r="25"></circle>
            <circle d="M445,110 C458.807119,110 470,98.8071194 470,85 C470,71.1928806 458.807119,60 445,60 C431.192881,60 420,71.1928806 420,85 C420,98.8071194 431.192881,110 445,110 Z M445,110" id="Oval-1" fill-opacity="0.5" fill="#FFFFFF" sketch:type="MSShapeGroup" cx="445" cy="85" r="25"></circle>
            <circle d="M445,170 C458.807119,170 470,158.807119 470,145 C470,131.192881 458.807119,120 445,120 C431.192881,120 420,131.192881 420,145 C420,158.807119 431.192881,170 445,170 Z M445,170" id="Oval-1" fill-opacity="0.2" fill="#FFFFFF" sketch:type="MSShapeGroup" cx="445" cy="145" r="25"></circle>
            <text id="Magic-glue" fill="#898989" sketch:type="MSTextLayer" font-family="Helvetica Neue" font-size="14" font-weight="260">
                <tspan x="542" y="211">Magic glue</tspan>
            </text>
            <text id="App-specific-librari" fill="#898989" sketch:type="MSTextLayer" font-family="Helvetica Neue" font-size="14" font-weight="260">
                <tspan x="542" y="28">App specific libraries</tspan>
            </text>
            <text id="App-independent-libr" fill="#898989" sketch:type="MSTextLayer" font-family="Helvetica Neue" font-size="14" font-weight="260">
                <tspan x="542" y="89">App independent libraries</tspan>
            </text>
            <text id="Third-party-librarie" fill="#898989" sketch:type="MSTextLayer" font-family="Helvetica Neue" font-size="14" font-weight="260">
                <tspan x="542" y="150">Third party libraries</tspan>
            </text>
        </g>
    </g>
</svg>