<?xml version="1.0" encoding="UTF-8" standalone="no"?>
<svg width="680px" height="283px" viewBox="0 0 680 283" version="1.1" xmlns="http://www.w3.org/2000/svg" xmlns:xlink="http://www.w3.org/1999/xlink" xmlns:sketch="http://www.bohemiancoding.com/sketch/ns">
    <title>glue</title>
    <description>Created with Sketch (http://www.bohemiancoding.com/sketch)</description>
    <defs></defs>
    <g id="Page-1" stroke="none" stroke-width="1" fill="none" fill-rule="evenodd" sketch:type="MSPage">
        <g id="Group" sketch:type="MSLayerGroup">
            <rect d="M2.99445277,0 C1.34066217,0 0,1.34070438 0,2.99854118 L0,280.001459 C0,281.657507 1.34265336,283 2.99445277,283 L677.005547,283 C678.659338,283 680,281.659296 680,280.001459 L680,2.99854118 C680,1.34249261 678.657347,0 677.005547,0 L2.99445277,0 Z M2.99445277,0" id="Rectangle-1" fill="#A9E472" sketch:type="MSShapeGroup" x="0" y="0" width="680" height="283" rx="3"></rect>
            <g transform="translate(82.000000, 36.000000)" id="Rectangle-2" fill="#FFFFFF" sketch:type="MSShapeGroup">
                <rect d="M2.99796231,124 C1.34223344,124 0,125.342096 0,126.994461 L0,211.005539 C0,212.659334 1.33922365,214 2.99796231,214 L128.002038,214 C129.657767,214 131,212.657904 131,211.005539 L131,126.994461 C131,125.340666 129.660776,124 128.002038,124 L2.99796231,124 Z M2.99796231,124" x="0" y="124" width="131" height="90" rx="3"></rect>
                <rect d="M10.003234,0 C8.34459364,0 7,1.34806404 7,2.99990186 L7,95.0000981 C7,96.6568982 8.34680706,98 10.003234,98 L146.996766,98 C148.655406,98 150,96.651936 150,95.0000981 L150,2.99990186 C150,1.34310181 148.653193,0 146.996766,0 L10.003234,0 Z M10.003234,0" x="7" y="0" width="143" height="98" rx="3"></rect>
                <rect d="M188.003234,12 C186.344594,12 185,13.348064 185,14.9999019 L185,107.000098 C185,108.656898 186.346807,110 188.003234,110 L324.996766,110 C326.655406,110 328,108.651936 328,107.000098 L328,14.9999019 C328,13.3431018 326.653193,12 324.996766,12 L188.003234,12 Z M188.003234,12" x="185" y="12" width="143" height="98" rx="3"></rect>
                <rect d="M159.000228,140 C157.343248,140 156,141.343151 156,143.006932 L156,195.993068 C156,197.653751 157.335147,199 159.000228,199 L237.999772,199 C239.656752,199 241,197.656849 241,195.993068 L241,143.006932 C241,141.346249 239.664853,140 237.999772,140 L159.000228,140 Z M159.000228,140" x="156" y="140" width="85" height="59" rx="3"></rect>
                <rect d="M269.000228,131 C267.343248,131 266,132.343151 266,134.006932 L266,186.993068 C266,188.653751 267.335147,190 269.000228,190 L347.999772,190 C349.656752,190 351,188.656849 351,186.993068 L351,134.006932 C351,132.346249 349.664853,131 347.999772,131 L269.000228,131 Z M269.000228,131" x="266" y="131" width="85" height="59" rx="3"></rect>
                <rect d="M366.003745,0 C364.344822,0 363,1.33514702 363,3.00022799 L363,81.999772 C363,83.6567522 364.350317,85 366.003745,85 L483.996255,85 C485.655178,85 487,83.664853 487,81.999772 L487,3.00022799 C487,1.34324782 485.649683,0 483.996255,0 L366.003745,0 Z M366.003745,0" x="363" y="0" width="124" height="85" rx="3"></rect>
                <rect d="M379.003234,111 C377.344594,111 376,112.348064 376,113.999902 L376,206.000098 C376,207.656898 377.346807,209 379.003234,209 L515.996766,209 C517.655406,209 519,207.651936 519,206.000098 L519,113.999902 C519,112.343102 517.653193,111 515.996766,111 L379.003234,111 Z M379.003234,111" x="376" y="111" width="143" height="98" rx="3"></rect>
            </g>
        </g>
    </g>
</svg>