<?xml version="1.0" encoding="UTF-8" standalone="no"?>
<svg width="890px" height="1130px" viewBox="0 0 890 1130" version="1.1" xmlns="http://www.w3.org/2000/svg" xmlns:xlink="http://www.w3.org/1999/xlink" xmlns:sketch="http://www.bohemiancoding.com/sketch/ns">
    <title>grid</title>
    <description>Created with Sketch (http://www.bohemiancoding.com/sketch)</description>
    <defs></defs>
    <g id="Page-1" stroke="none" stroke-width="1" fill="none" fill-rule="evenodd" sketch:type="MSPage">
        <rect d="M0,0 L0,50 L50,50 L50,0 L0,0 Z M0,0" id="Rectangle-1" fill="#A9E472" sketch:type="MSShapeGroup" x="0" y="0" width="50" height="50"></rect>
        <rect d="M0,60 L0,110 L50,110 L50,60 L0,60 Z M0,60" id="Rectangle-1" fill="#A9E472" sketch:type="MSShapeGroup" x="0" y="60" width="50" height="50"></rect>
        <rect d="M60,0 L60,50 L110,50 L110,0 L60,0 Z M60,0" id="Rectangle-1" fill="#A9E472" sketch:type="MSShapeGroup" x="60" y="0" width="50" height="50"></rect>
        <rect d="M60,60 L60,110 L110,110 L110,60 L60,60 Z M60,60" id="Rectangle-1" fill="#A9E472" sketch:type="MSShapeGroup" x="60" y="60" width="50" height="50"></rect>
        <rect d="M120,0 L120,50 L170,50 L170,0 L120,0 Z M120,0" id="Rectangle-1" fill="#A9E472" sketch:type="MSShapeGroup" x="120" y="0" width="50" height="50"></rect>
        <rect d="M120,60 L120,110 L170,110 L170,60 L120,60 Z M120,60" id="Rectangle-1" fill="#A9E472" sketch:type="MSShapeGroup" x="120" y="60" width="50" height="50"></rect>
        <rect d="M0,120 L0,170 L50,170 L50,120 L0,120 Z M0,120" id="Rectangle-1" fill="#A9E472" sketch:type="MSShapeGroup" x="0" y="120" width="50" height="50"></rect>
        <rect d="M60,120 L60,170 L110,170 L110,120 L60,120 Z M60,120" id="Rectangle-1" fill="#A9E472" sketch:type="MSShapeGroup" x="60" y="120" width="50" height="50"></rect>
        <rect d="M120,120 L120,170 L170,170 L170,120 L120,120 Z M120,120" id="Rectangle-1" fill="#A9E472" sketch:type="MSShapeGroup" x="120" y="120" width="50" height="50"></rect>
        <rect d="M180,0 L180,50 L230,50 L230,0 L180,0 Z M180,0" id="Rectangle-1" opacity="0.1" fill="#A9E472" sketch:type="MSShapeGroup" x="180" y="0" width="50" height="50"></rect>
        <rect d="M180,60 L180,110 L230,110 L230,60 L180,60 Z M180,60" id="Rectangle-1" opacity="0.1" fill="#A9E472" sketch:type="MSShapeGroup" x="180" y="60" width="50" height="50"></rect>
        <rect d="M180,120 L180,170 L230,170 L230,120 L180,120 Z M180,120" id="Rectangle-1" opacity="0.1" fill="#A9E472" sketch:type="MSShapeGroup" x="180" y="120" width="50" height="50"></rect>
        <rect d="M180,180 L180,230 L230,230 L230,180 L180,180 Z M180,180" id="Rectangle-1" opacity="0.1" fill="#A9E472" sketch:type="MSShapeGroup" x="180" y="180" width="50" height="50"></rect>
        <rect d="M180,240 L180,290 L230,290 L230,240 L180,240 Z M180,240" id="Rectangle-1" opacity="0.1" fill="#A9E472" sketch:type="MSShapeGroup" x="180" y="240" width="50" height="50"></rect>
        <rect d="M180,300 L180,350 L230,350 L230,300 L180,300 Z M180,300" id="Rectangle-1" opacity="0.1" fill="#A9E472" sketch:type="MSShapeGroup" x="180" y="300" width="50" height="50"></rect>
        <rect d="M180,360 L180,410 L230,410 L230,360 L180,360 Z M180,360" id="Rectangle-1" opacity="0.1" fill="#A9E472" sketch:type="MSShapeGroup" x="180" y="360" width="50" height="50"></rect>
        <rect d="M180,420 L180,470 L230,470 L230,420 L180,420 Z M180,420" id="Rectangle-1" opacity="0.1" fill="#A9E472" sketch:type="MSShapeGroup" x="180" y="420" width="50" height="50"></rect>
        <rect d="M180,480 L180,530 L230,530 L230,480 L180,480 Z M180,480" id="Rectangle-1" opacity="0.1" fill="#A9E472" sketch:type="MSShapeGroup" x="180" y="480" width="50" height="50"></rect>
        <rect d="M180,540 L180,590 L230,590 L230,540 L180,540 Z M180,540" id="Rectangle-1" opacity="0.1" fill="#A9E472" sketch:type="MSShapeGroup" x="180" y="540" width="50" height="50"></rect>
        <rect d="M180,600 L180,650 L230,650 L230,600 L180,600 Z M180,600" id="Rectangle-1" opacity="0.1" fill="#A9E472" sketch:type="MSShapeGroup" x="180" y="600" width="50" height="50"></rect>
        <rect d="M180,660 L180,710 L230,710 L230,660 L180,660 Z M180,660" id="Rectangle-1" opacity="0.1" fill="#A9E472" sketch:type="MSShapeGroup" x="180" y="660" width="50" height="50"></rect>
        <rect d="M120,660 L120,710 L170,710 L170,660 L120,660 Z M120,660" id="Rectangle-1" opacity="0.1" fill="#A9E472" sketch:type="MSShapeGroup" x="120" y="660" width="50" height="50"></rect>
        <rect d="M60,660 L60,710 L110,710 L110,660 L60,660 Z M60,660" id="Rectangle-1" opacity="0.1" fill="#A9E472" sketch:type="MSShapeGroup" x="60" y="660" width="50" height="50"></rect>
        <rect d="M0,660 L0,710 L50,710 L50,660 L0,660 Z M0,660" id="Rectangle-1" opacity="0.1" fill="#A9E472" sketch:type="MSShapeGroup" x="0" y="660" width="50" height="50"></rect>
        <rect d="M600,660 L600,710 L650,710 L650,660 L600,660 Z M600,660" id="Rectangle-1" opacity="0.1" fill="#A9E472" sketch:type="MSShapeGroup" x="600" y="660" width="50" height="50"></rect>
        <rect d="M540,660 L540,710 L590,710 L590,660 L540,660 Z M540,660" id="Rectangle-1" opacity="0.1" fill="#A9E472" sketch:type="MSShapeGroup" x="540" y="660" width="50" height="50"></rect>
        <rect d="M600,720 L600,770 L650,770 L650,720 L600,720 Z M600,720" id="Rectangle-1" opacity="0.1" fill="#A9E472" sketch:type="MSShapeGroup" x="600" y="720" width="50" height="50"></rect>
        <rect d="M600,780 L600,830 L650,830 L650,780 L600,780 Z M600,780" id="Rectangle-1" opacity="0.1" fill="#A9E472" sketch:type="MSShapeGroup" x="600" y="780" width="50" height="50"></rect>
        <rect d="M540,720 L540,770 L590,770 L590,720 L540,720 Z M540,720" id="Rectangle-1" opacity="0.1" fill="#A9E472" sketch:type="MSShapeGroup" x="540" y="720" width="50" height="50"></rect>
        <rect d="M480,660 L480,710 L530,710 L530,660 L480,660 Z M480,660" id="Rectangle-1" opacity="0.1" fill="#A9E472" sketch:type="MSShapeGroup" x="480" y="660" width="50" height="50"></rect>
        <rect d="M360,660 L360,710 L410,710 L410,660 L360,660 Z M360,660" id="Rectangle-1" opacity="0.1" fill="#A9E472" sketch:type="MSShapeGroup" x="360" y="660" width="50" height="50"></rect>
        <rect d="M300,660 L300,710 L350,710 L350,660 L300,660 Z M300,660" id="Rectangle-1" opacity="0.1" fill="#A9E472" sketch:type="MSShapeGroup" x="300" y="660" width="50" height="50"></rect>
        <rect d="M240,660 L240,710 L290,710 L290,660 L240,660 Z M240,660" id="Rectangle-1" opacity="0.1" fill="#A9E472" sketch:type="MSShapeGroup" x="240" y="660" width="50" height="50"></rect>
        <rect d="M60,780 L60,890 L110,890 L110,780 L60,780 Z M60,780" id="Rectangle-1" fill="#A9E472" sketch:type="MSShapeGroup" x="60" y="780" width="50" height="110"></rect>
        <rect d="M180,720 L180,770 L230,770 L230,720 L180,720 Z M180,720" id="Rectangle-1" opacity="0.1" fill="#A9E472" sketch:type="MSShapeGroup" x="180" y="720" width="50" height="50"></rect>
        <rect d="M180,780 L180,830 L230,830 L230,780 L180,780 Z M180,780" id="Rectangle-1" opacity="0.1" fill="#A9E472" sketch:type="MSShapeGroup" x="180" y="780" width="50" height="50"></rect>
        <rect d="M180,840 L180,890 L230,890 L230,840 L180,840 Z M180,840" id="Rectangle-1" opacity="0.1" fill="#A9E472" sketch:type="MSShapeGroup" x="180" y="840" width="50" height="50"></rect>
        <rect d="M420,0 L420,50 L470,50 L470,0 L420,0 Z M420,0" id="Rectangle-1" opacity="0.1" fill="#A9E472" sketch:type="MSShapeGroup" x="420" y="0" width="50" height="50"></rect>
        <rect d="M420,60 L420,110 L470,110 L470,60 L420,60 Z M420,60" id="Rectangle-1" opacity="0.1" fill="#A9E472" sketch:type="MSShapeGroup" x="420" y="60" width="50" height="50"></rect>
        <rect d="M420,120 L420,170 L470,170 L470,120 L420,120 Z M420,120" id="Rectangle-1" opacity="0.1" fill="#A9E472" sketch:type="MSShapeGroup" x="420" y="120" width="50" height="50"></rect>
        <rect d="M420,180 L420,230 L470,230 L470,180 L420,180 Z M420,180" id="Rectangle-1" opacity="0.1" fill="#A9E472" sketch:type="MSShapeGroup" x="420" y="180" width="50" height="50"></rect>
        <rect d="M420,240 L420,290 L470,290 L470,240 L420,240 Z M420,240" id="Rectangle-1" opacity="0.1" fill="#A9E472" sketch:type="MSShapeGroup" x="420" y="240" width="50" height="50"></rect>
        <rect d="M420,300 L420,350 L470,350 L470,300 L420,300 Z M420,300" id="Rectangle-1" opacity="0.1" fill="#A9E472" sketch:type="MSShapeGroup" x="420" y="300" width="50" height="50"></rect>
        <rect d="M420,360 L420,410 L470,410 L470,360 L420,360 Z M420,360" id="Rectangle-1" opacity="0.1" fill="#A9E472" sketch:type="MSShapeGroup" x="420" y="360" width="50" height="50"></rect>
        <rect d="M420,420 L420,470 L470,470 L470,420 L420,420 Z M420,420" id="Rectangle-1" opacity="0.1" fill="#A9E472" sketch:type="MSShapeGroup" x="420" y="420" width="50" height="50"></rect>
        <rect d="M420,480 L420,530 L470,530 L470,480 L420,480 Z M420,480" id="Rectangle-1" opacity="0.1" fill="#A9E472" sketch:type="MSShapeGroup" x="420" y="480" width="50" height="50"></rect>
        <rect d="M420,540 L420,590 L470,590 L470,540 L420,540 Z M420,540" id="Rectangle-1" opacity="0.1" fill="#A9E472" sketch:type="MSShapeGroup" x="420" y="540" width="50" height="50"></rect>
        <rect d="M420,600 L420,650 L470,650 L470,600 L420,600 Z M420,600" id="Rectangle-1" opacity="0.1" fill="#A9E472" sketch:type="MSShapeGroup" x="420" y="600" width="50" height="50"></rect>
        <rect d="M420,660 L420,710 L470,710 L470,660 L420,660 Z M420,660" id="Rectangle-1" opacity="0.1" fill="#A9E472" sketch:type="MSShapeGroup" x="420" y="660" width="50" height="50"></rect>
        <rect d="M420,720 L420,770 L470,770 L470,720 L420,720 Z M420,720" id="Rectangle-1" opacity="0.1" fill="#A9E472" sketch:type="MSShapeGroup" x="420" y="720" width="50" height="50"></rect>
        <rect d="M420,780 L420,830 L470,830 L470,780 L420,780 Z M420,780" id="Rectangle-1" opacity="0.1" fill="#A9E472" sketch:type="MSShapeGroup" x="420" y="780" width="50" height="50"></rect>
        <rect d="M420,840 L420,890 L470,890 L470,840 L420,840 Z M420,840" id="Rectangle-1" opacity="0.1" fill="#A9E472" sketch:type="MSShapeGroup" x="420" y="840" width="50" height="50"></rect>
        <rect d="M660,0 L660,50 L710,50 L710,0 L660,0 Z M660,0" id="Rectangle-1" opacity="0.1" fill="#A9E472" sketch:type="MSShapeGroup" x="660" y="0" width="50" height="50"></rect>
        <rect d="M660,60 L660,110 L710,110 L710,60 L660,60 Z M660,60" id="Rectangle-1" opacity="0.1" fill="#A9E472" sketch:type="MSShapeGroup" x="660" y="60" width="50" height="50"></rect>
        <rect d="M660,120 L660,170 L710,170 L710,120 L660,120 Z M660,120" id="Rectangle-1" opacity="0.1" fill="#A9E472" sketch:type="MSShapeGroup" x="660" y="120" width="50" height="50"></rect>
        <rect d="M660,180 L660,230 L710,230 L710,180 L660,180 Z M660,180" id="Rectangle-1" opacity="0.1" fill="#A9E472" sketch:type="MSShapeGroup" x="660" y="180" width="50" height="50"></rect>
        <rect d="M660,240 L660,290 L710,290 L710,240 L660,240 Z M660,240" id="Rectangle-1" opacity="0.1" fill="#A9E472" sketch:type="MSShapeGroup" x="660" y="240" width="50" height="50"></rect>
        <rect d="M660,300 L660,350 L710,350 L710,300 L660,300 Z M660,300" id="Rectangle-1" opacity="0.1" fill="#A9E472" sketch:type="MSShapeGroup" x="660" y="300" width="50" height="50"></rect>
        <rect d="M660,360 L660,410 L710,410 L710,360 L660,360 Z M660,360" id="Rectangle-1" opacity="0.1" fill="#A9E472" sketch:type="MSShapeGroup" x="660" y="360" width="50" height="50"></rect>
        <rect d="M660,420 L660,470 L710,470 L710,420 L660,420 Z M660,420" id="Rectangle-1" opacity="0.1" fill="#A9E472" sketch:type="MSShapeGroup" x="660" y="420" width="50" height="50"></rect>
        <rect d="M660,480 L660,530 L710,530 L710,480 L660,480 Z M660,480" id="Rectangle-1" opacity="0.1" fill="#A9E472" sketch:type="MSShapeGroup" x="660" y="480" width="50" height="50"></rect>
        <rect d="M660,540 L660,590 L710,590 L710,540 L660,540 Z M660,540" id="Rectangle-1" opacity="0.1" fill="#A9E472" sketch:type="MSShapeGroup" x="660" y="540" width="50" height="50"></rect>
        <rect d="M660,600 L660,650 L710,650 L710,600 L660,600 Z M660,600" id="Rectangle-1" opacity="0.1" fill="#A9E472" sketch:type="MSShapeGroup" x="660" y="600" width="50" height="50"></rect>
        <rect d="M660,660 L660,710 L710,710 L710,660 L660,660 Z M660,660" id="Rectangle-1" opacity="0.1" fill="#A9E472" sketch:type="MSShapeGroup" x="660" y="660" width="50" height="50"></rect>
        <rect d="M660,720 L660,770 L710,770 L710,720 L660,720 Z M660,720" id="Rectangle-1" opacity="0.1" fill="#A9E472" sketch:type="MSShapeGroup" x="660" y="720" width="50" height="50"></rect>
        <rect d="M660,780 L660,830 L710,830 L710,780 L660,780 Z M660,780" id="Rectangle-1" opacity="0.1" fill="#A9E472" sketch:type="MSShapeGroup" x="660" y="780" width="50" height="50"></rect>
        <rect d="M660,840 L660,890 L710,890 L710,840 L660,840 Z M660,840" id="Rectangle-1" opacity="0.1" fill="#A9E472" sketch:type="MSShapeGroup" x="660" y="840" width="50" height="50"></rect>
        <rect d="M0,720 L0,830 L50,830 L50,720 L0,720 Z M0,720" id="Rectangle-1" fill="#69CA14" sketch:type="MSShapeGroup" x="0" y="720" width="50" height="110"></rect>
        <rect d="M60,720 L60,770 L110,770 L110,720 L60,720 Z M60,720" id="Rectangle-1" fill="#A9E472" sketch:type="MSShapeGroup" x="60" y="720" width="50" height="50"></rect>
        <rect d="M120,720 L120,830 L170,830 L170,720 L120,720 Z M120,720" id="Rectangle-1" fill="#A9E472" sketch:type="MSShapeGroup" x="120" y="720" width="50" height="110"></rect>
        <rect d="M0,840 L0,890 L50,890 L50,840 L0,840 Z M0,840" id="Rectangle-1" fill="#A9E472" sketch:type="MSShapeGroup" x="0" y="840" width="50" height="50"></rect>
        <rect d="M120,840 L120,890 L170,890 L170,840 L120,840 Z M120,840" id="Rectangle-1" fill="#A9E472" sketch:type="MSShapeGroup" x="120" y="840" width="50" height="50"></rect>
        <rect d="M240,720 L240,770 L290,770 L290,720 L240,720 Z M240,720" id="Rectangle-1" fill="#A9E472" sketch:type="MSShapeGroup" x="240" y="720" width="50" height="50"></rect>
        <rect d="M240,780 L240,830 L290,830 L290,780 L240,780 Z M240,780" id="Rectangle-1" fill="#A9E472" sketch:type="MSShapeGroup" x="240" y="780" width="50" height="50"></rect>
        <rect d="M300,720 L300,770 L350,770 L350,720 L300,720 Z M300,720" id="Rectangle-1" fill="#A9E472" sketch:type="MSShapeGroup" x="300" y="720" width="50" height="50"></rect>
        <rect d="M300,780 L300,830 L350,830 L350,780 L300,780 Z M300,780" id="Rectangle-1" fill="#69CA14" sketch:type="MSShapeGroup" x="300" y="780" width="50" height="50"></rect>
        <rect d="M360,720 L360,770 L410,770 L410,720 L360,720 Z M360,720" id="Rectangle-1" fill="#A9E472" sketch:type="MSShapeGroup" x="360" y="720" width="50" height="50"></rect>
        <rect d="M360,780 L360,830 L410,830 L410,780 L360,780 Z M360,780" id="Rectangle-1" fill="#A9E472" sketch:type="MSShapeGroup" x="360" y="780" width="50" height="50"></rect>
        <rect d="M240,840 L240,890 L290,890 L290,840 L240,840 Z M240,840" id="Rectangle-1" fill="#A9E472" sketch:type="MSShapeGroup" x="240" y="840" width="50" height="50"></rect>
        <rect d="M300,840 L300,890 L350,890 L350,840 L300,840 Z M300,840" id="Rectangle-1" fill="#A9E472" sketch:type="MSShapeGroup" x="300" y="840" width="50" height="50"></rect>
        <rect d="M360,840 L360,890 L410,890 L410,840 L360,840 Z M360,840" id="Rectangle-1" fill="#A9E472" sketch:type="MSShapeGroup" x="360" y="840" width="50" height="50"></rect>
        <rect d="M0,480 L0,530 L110,530 L110,480 L0,480 Z M0,480" id="Rectangle-1" fill="#A9E472" sketch:type="MSShapeGroup" x="0" y="480" width="110" height="50"></rect>
        <rect d="M0,540 L0,590 L50,590 L50,540 L0,540 Z M0,540" id="Rectangle-1" fill="#69CA14" sketch:type="MSShapeGroup" x="0" y="540" width="50" height="50"></rect>
        <rect d="M60,540 L60,590 L170,590 L170,540 L60,540 Z M60,540" id="Rectangle-1" fill="#A9E472" sketch:type="MSShapeGroup" x="60" y="540" width="110" height="50"></rect>
        <rect d="M120,480 L120,530 L170,530 L170,480 L120,480 Z M120,480" id="Rectangle-1" fill="#69CA14" sketch:type="MSShapeGroup" x="120" y="480" width="50" height="50"></rect>
        <rect d="M0,600 L0,650 L110,650 L110,600 L0,600 Z M0,600" id="Rectangle-1" fill="#A9E472" sketch:type="MSShapeGroup" x="0" y="600" width="110" height="50"></rect>
        <rect d="M120,600 L120,650 L170,650 L170,600 L120,600 Z M120,600" id="Rectangle-1" fill="#69CA14" sketch:type="MSShapeGroup" x="120" y="600" width="50" height="50"></rect>
        <rect d="M240,480 L240,530 L290,530 L290,480 L240,480 Z M240,480" id="Rectangle-1" fill="#69CA14" sketch:type="MSShapeGroup" x="240" y="480" width="50" height="50"></rect>
        <rect d="M240,540 L240,590 L290,590 L290,540 L240,540 Z M240,540" id="Rectangle-1" fill="#69CA14" sketch:type="MSShapeGroup" x="240" y="540" width="50" height="50"></rect>
        <rect d="M300,480 L300,530 L410,530 L410,480 L300,480 Z M300,480" id="Rectangle-1" fill="#A9E472" sketch:type="MSShapeGroup" x="300" y="480" width="110" height="50"></rect>
        <rect d="M300,540 L300,590 L410,590 L410,540 L300,540 Z M300,540" id="Rectangle-1" fill="#A9E472" sketch:type="MSShapeGroup" x="300" y="540" width="110" height="50"></rect>
        <rect d="M240,600 L240,650 L290,650 L290,600 L240,600 Z M240,600" id="Rectangle-1" fill="#69CA14" sketch:type="MSShapeGroup" x="240" y="600" width="50" height="50"></rect>
        <rect d="M300,600 L300,650 L410,650 L410,600 L300,600 Z M300,600" id="Rectangle-1" fill="#A9E472" sketch:type="MSShapeGroup" x="300" y="600" width="110" height="50"></rect>
        <rect d="M240,0 L240,50 L410,50 L410,0 L240,0 Z M240,0" id="Rectangle-1" fill="#69CA14" sketch:type="MSShapeGroup" x="240" y="0" width="170" height="50"></rect>
        <rect d="M240,60 L240,110 L290,110 L290,60 L240,60 Z M240,60" id="Rectangle-1" fill="#A9E472" sketch:type="MSShapeGroup" x="240" y="60" width="50" height="50"></rect>
        <rect d="M300,60 L300,110 L350,110 L350,60 L300,60 Z M300,60" id="Rectangle-1" fill="#A9E472" sketch:type="MSShapeGroup" x="300" y="60" width="50" height="50"></rect>
        <rect d="M240,120 L240,170 L290,170 L290,120 L240,120 Z M240,120" id="Rectangle-1" fill="#A9E472" sketch:type="MSShapeGroup" x="240" y="120" width="50" height="50"></rect>
        <rect d="M300,120 L300,170 L350,170 L350,120 L300,120 Z M300,120" id="Rectangle-1" fill="#A9E472" sketch:type="MSShapeGroup" x="300" y="120" width="50" height="50"></rect>
        <rect d="M360,60 L360,110 L410,110 L410,60 L360,60 Z M360,60" id="Rectangle-1" fill="#A9E472" sketch:type="MSShapeGroup" x="360" y="60" width="50" height="50"></rect>
        <rect d="M480,0 L480,50 L650,50 L650,0 L480,0 Z M480,0" id="Rectangle-1" fill="#69CA14" sketch:type="MSShapeGroup" x="480" y="0" width="170" height="50"></rect>
        <rect d="M480,60 L480,170 L530,170 L530,60 L480,60 Z M480,60" id="Rectangle-1" fill="#A9E472" sketch:type="MSShapeGroup" x="480" y="60" width="50" height="110"></rect>
        <rect d="M360,120 L360,170 L410,170 L410,120 L360,120 Z M360,120" id="Rectangle-1" fill="#A9E472" sketch:type="MSShapeGroup" x="360" y="120" width="50" height="50"></rect>
        <rect d="M540,60 L540,110 L590,110 L590,60 L540,60 Z M540,60" id="Rectangle-1" fill="#A9E472" sketch:type="MSShapeGroup" x="540" y="60" width="50" height="50"></rect>
        <rect d="M600,60 L600,110 L650,110 L650,60 L600,60 Z M600,60" id="Rectangle-1" fill="#A9E472" sketch:type="MSShapeGroup" x="600" y="60" width="50" height="50"></rect>
        <rect d="M540,120 L540,170 L590,170 L590,120 L540,120 Z M540,120" id="Rectangle-1" fill="#A9E472" sketch:type="MSShapeGroup" x="540" y="120" width="50" height="50"></rect>
        <rect d="M600,120 L600,170 L650,170 L650,120 L600,120 Z M600,120" id="Rectangle-1" fill="#A9E472" sketch:type="MSShapeGroup" x="600" y="120" width="50" height="50"></rect>
        <rect d="M720,0 L720,110 L890,110 L890,0 L720,0 Z M720,0" id="Rectangle-1" fill="#69CA14" sketch:type="MSShapeGroup" x="720" y="0" width="170" height="110"></rect>
        <rect d="M720,120 L720,170 L770,170 L770,120 L720,120 Z M720,120" id="Rectangle-1" fill="#A9E472" sketch:type="MSShapeGroup" x="720" y="120" width="50" height="50"></rect>
        <rect d="M780,120 L780,170 L830,170 L830,120 L780,120 Z M780,120" id="Rectangle-1" fill="#A9E472" sketch:type="MSShapeGroup" x="780" y="120" width="50" height="50"></rect>
        <rect d="M840,120 L840,170 L890,170 L890,120 L840,120 Z M840,120" id="Rectangle-1" fill="#A9E472" sketch:type="MSShapeGroup" x="840" y="120" width="50" height="50"></rect>
        <rect d="M0,240 L0,410 L50,410 L50,240 L0,240 Z M0,240" id="Rectangle-1" fill="#69CA14" sketch:type="MSShapeGroup" x="0" y="240" width="50" height="170"></rect>
        <rect d="M60,240 L60,410 L110,410 L110,240 L60,240 Z M60,240" id="Rectangle-1" fill="#A9E472" sketch:type="MSShapeGroup" x="60" y="240" width="50" height="170"></rect>
        <rect d="M120,240 L120,410 L170,410 L170,240 L120,240 Z M120,240" id="Rectangle-1" fill="#A9E472" sketch:type="MSShapeGroup" x="120" y="240" width="50" height="170"></rect>
        <rect d="M240,240 L240,350 L350,350 L350,240 L240,240 Z M240,240" id="Rectangle-1" fill="#69CA14" sketch:type="MSShapeGroup" x="240" y="240" width="110" height="110"></rect>
        <rect d="M360,240 L360,290 L410,290 L410,240 L360,240 Z M360,240" id="Rectangle-1" fill="#A9E472" sketch:type="MSShapeGroup" x="360" y="240" width="50" height="50"></rect>
        <rect d="M240,360 L240,410 L290,410 L290,360 L240,360 Z M240,360" id="Rectangle-1" fill="#A9E472" sketch:type="MSShapeGroup" x="240" y="360" width="50" height="50"></rect>
        <rect d="M300,360 L300,410 L350,410 L350,360 L300,360 Z M300,360" id="Rectangle-1" fill="#A9E472" sketch:type="MSShapeGroup" x="300" y="360" width="50" height="50"></rect>
        <rect d="M360,300 L360,350 L410,350 L410,300 L360,300 Z M360,300" id="Rectangle-1" fill="#A9E472" sketch:type="MSShapeGroup" x="360" y="300" width="50" height="50"></rect>
        <rect d="M480,240 L480,290 L650,290 L650,240 L480,240 Z M480,240" id="Rectangle-1" fill="#69CA14" sketch:type="MSShapeGroup" x="480" y="240" width="170" height="50"></rect>
        <rect d="M480,300 L480,350 L650,350 L650,300 L480,300 Z M480,300" id="Rectangle-1" fill="#A9E472" sketch:type="MSShapeGroup" x="480" y="300" width="170" height="50"></rect>
        <rect d="M480,360 L480,410 L650,410 L650,360 L480,360 Z M480,360" id="Rectangle-1" fill="#69CA14" sketch:type="MSShapeGroup" x="480" y="360" width="170" height="50"></rect>
        <rect d="M360,360 L360,410 L410,410 L410,360 L360,360 Z M360,360" id="Rectangle-1" fill="#A9E472" sketch:type="MSShapeGroup" x="360" y="360" width="50" height="50"></rect>
        <rect d="M720,240 L720,410 L890,410 L890,240 L720,240 Z M720,240" id="Rectangle-1" fill="#A9E472" sketch:type="MSShapeGroup" x="720" y="240" width="170" height="170"></rect>
        <rect d="M480,480 L480,530 L530,530 L530,480 L480,480 Z M480,480" id="Rectangle-1" fill="#69CA14" sketch:type="MSShapeGroup" x="480" y="480" width="50" height="50"></rect>
        <rect d="M480,540 L480,650 L530,650 L530,540 L480,540 Z M480,540" id="Rectangle-1" fill="#A9E472" sketch:type="MSShapeGroup" x="480" y="540" width="50" height="110"></rect>
        <rect d="M540,480 L540,530 L590,530 L590,480 L540,480 Z M540,480" id="Rectangle-1" fill="#69CA14" sketch:type="MSShapeGroup" x="540" y="480" width="50" height="50"></rect>
        <rect d="M540,540 L540,650 L590,650 L590,540 L540,540 Z M540,540" id="Rectangle-1" fill="#A9E472" sketch:type="MSShapeGroup" x="540" y="540" width="50" height="110"></rect>
        <rect d="M600,480 L600,530 L650,530 L650,480 L600,480 Z M600,480" id="Rectangle-1" fill="#69CA14" sketch:type="MSShapeGroup" x="600" y="480" width="50" height="50"></rect>
        <rect d="M600,540 L600,650 L650,650 L650,540 L600,540 Z M600,540" id="Rectangle-1" fill="#A9E472" sketch:type="MSShapeGroup" x="600" y="540" width="50" height="110"></rect>
        <rect d="M720,480 L720,530 L770,530 L770,480 L720,480 Z M720,480" id="Rectangle-1" fill="#A9E472" sketch:type="MSShapeGroup" x="720" y="480" width="50" height="50"></rect>
        <rect d="M720,540 L720,650 L890,650 L890,540 L720,540 Z M720,540" id="Rectangle-1" fill="#69CA14" sketch:type="MSShapeGroup" x="720" y="540" width="170" height="110"></rect>
        <rect d="M780,480 L780,530 L830,530 L830,480 L780,480 Z M780,480" id="Rectangle-1" fill="#A9E472" sketch:type="MSShapeGroup" x="780" y="480" width="50" height="50"></rect>
        <rect d="M840,480 L840,530 L890,530 L890,480 L840,480 Z M840,480" id="Rectangle-1" fill="#A9E472" sketch:type="MSShapeGroup" x="840" y="480" width="50" height="50"></rect>
        <rect d="M480,720 L480,770 L530,770 L530,720 L480,720 Z M480,720" id="Rectangle-1" fill="#A9E472" sketch:type="MSShapeGroup" x="480" y="720" width="50" height="50"></rect>
        <rect d="M480,780 L480,830 L530,830 L530,780 L480,780 Z M480,780" id="Rectangle-1" fill="#A9E472" sketch:type="MSShapeGroup" x="480" y="780" width="50" height="50"></rect>
        <rect d="M540,780 L540,830 L590,830 L590,780 L540,780 Z M540,780" id="Rectangle-1" fill="#A9E472" sketch:type="MSShapeGroup" x="540" y="780" width="50" height="50"></rect>
        <rect d="M480,840 L480,890 L530,890 L530,840 L480,840 Z M480,840" id="Rectangle-1" fill="#A9E472" sketch:type="MSShapeGroup" x="480" y="840" width="50" height="50"></rect>
        <rect d="M540,840 L540,890 L590,890 L590,840 L540,840 Z M540,840" id="Rectangle-1" fill="#A9E472" sketch:type="MSShapeGroup" x="540" y="840" width="50" height="50"></rect>
        <rect d="M600,840 L600,890 L650,890 L650,840 L600,840 Z M600,840" id="Rectangle-1" fill="#A9E472" sketch:type="MSShapeGroup" x="600" y="840" width="50" height="50"></rect>
        <rect d="M720,720 L720,890 L770,890 L770,720 L720,720 Z M720,720" id="Rectangle-1" fill="#A9E472" sketch:type="MSShapeGroup" x="720" y="720" width="50" height="170"></rect>
        <rect d="M780,720 L780,770 L830,770 L830,720 L780,720 Z M780,720" id="Rectangle-1" fill="#69CA14" sketch:type="MSShapeGroup" x="780" y="720" width="50" height="50"></rect>
        <rect d="M780,780 L780,830 L830,830 L830,780 L780,780 Z M780,780" id="Rectangle-1" fill="#69CA14" sketch:type="MSShapeGroup" x="780" y="780" width="50" height="50"></rect>
        <rect d="M840,720 L840,770 L890,770 L890,720 L840,720 Z M840,720" id="Rectangle-1" fill="#69CA14" sketch:type="MSShapeGroup" x="840" y="720" width="50" height="50"></rect>
        <rect d="M840,780 L840,830 L890,830 L890,780 L840,780 Z M840,780" id="Rectangle-1" fill="#69CA14" sketch:type="MSShapeGroup" x="840" y="780" width="50" height="50"></rect>
        <rect d="M780,840 L780,890 L830,890 L830,840 L780,840 Z M780,840" id="Rectangle-1" fill="#69CA14" sketch:type="MSShapeGroup" x="780" y="840" width="50" height="50"></rect>
        <rect d="M840,840 L840,890 L890,890 L890,840 L840,840 Z M840,840" id="Rectangle-1" fill="#69CA14" sketch:type="MSShapeGroup" x="840" y="840" width="50" height="50"></rect>
        <rect d="M840,660 L840,710 L890,710 L890,660 L840,660 Z M840,660" id="Rectangle-1" opacity="0.1" fill="#A9E472" sketch:type="MSShapeGroup" x="840" y="660" width="50" height="50"></rect>
        <rect d="M780,660 L780,710 L830,710 L830,660 L780,660 Z M780,660" id="Rectangle-1" opacity="0.1" fill="#A9E472" sketch:type="MSShapeGroup" x="780" y="660" width="50" height="50"></rect>
        <rect d="M720,660 L720,710 L770,710 L770,660 L720,660 Z M720,660" id="Rectangle-1" opacity="0.1" fill="#A9E472" sketch:type="MSShapeGroup" x="720" y="660" width="50" height="50"></rect>
        <rect d="M120,420 L120,470 L170,470 L170,420 L120,420 Z M120,420" id="Rectangle-1" opacity="0.1" fill="#A9E472" sketch:type="MSShapeGroup" x="120" y="420" width="50" height="50"></rect>
        <rect d="M60,420 L60,470 L110,470 L110,420 L60,420 Z M60,420" id="Rectangle-1" opacity="0.1" fill="#A9E472" sketch:type="MSShapeGroup" x="60" y="420" width="50" height="50"></rect>
        <rect d="M0,420 L0,470 L50,470 L50,420 L0,420 Z M0,420" id="Rectangle-1" opacity="0.1" fill="#A9E472" sketch:type="MSShapeGroup" x="0" y="420" width="50" height="50"></rect>
        <rect d="M600,420 L600,470 L650,470 L650,420 L600,420 Z M600,420" id="Rectangle-1" opacity="0.1" fill="#A9E472" sketch:type="MSShapeGroup" x="600" y="420" width="50" height="50"></rect>
        <rect d="M540,420 L540,470 L590,470 L590,420 L540,420 Z M540,420" id="Rectangle-1" opacity="0.1" fill="#A9E472" sketch:type="MSShapeGroup" x="540" y="420" width="50" height="50"></rect>
        <rect d="M480,420 L480,470 L530,470 L530,420 L480,420 Z M480,420" id="Rectangle-1" opacity="0.1" fill="#A9E472" sketch:type="MSShapeGroup" x="480" y="420" width="50" height="50"></rect>
        <rect d="M360,420 L360,470 L410,470 L410,420 L360,420 Z M360,420" id="Rectangle-1" opacity="0.1" fill="#A9E472" sketch:type="MSShapeGroup" x="360" y="420" width="50" height="50"></rect>
        <rect d="M300,420 L300,470 L350,470 L350,420 L300,420 Z M300,420" id="Rectangle-1" opacity="0.1" fill="#A9E472" sketch:type="MSShapeGroup" x="300" y="420" width="50" height="50"></rect>
        <rect d="M240,420 L240,470 L290,470 L290,420 L240,420 Z M240,420" id="Rectangle-1" opacity="0.1" fill="#A9E472" sketch:type="MSShapeGroup" x="240" y="420" width="50" height="50"></rect>
        <rect d="M840,420 L840,470 L890,470 L890,420 L840,420 Z M840,420" id="Rectangle-1" opacity="0.1" fill="#A9E472" sketch:type="MSShapeGroup" x="840" y="420" width="50" height="50"></rect>
        <rect d="M780,420 L780,470 L830,470 L830,420 L780,420 Z M780,420" id="Rectangle-1" opacity="0.1" fill="#A9E472" sketch:type="MSShapeGroup" x="780" y="420" width="50" height="50"></rect>
        <rect d="M720,420 L720,470 L770,470 L770,420 L720,420 Z M720,420" id="Rectangle-1" opacity="0.1" fill="#A9E472" sketch:type="MSShapeGroup" x="720" y="420" width="50" height="50"></rect>
        <rect d="M120,180 L120,230 L170,230 L170,180 L120,180 Z M120,180" id="Rectangle-1" opacity="0.1" fill="#A9E472" sketch:type="MSShapeGroup" x="120" y="180" width="50" height="50"></rect>
        <rect d="M60,180 L60,230 L110,230 L110,180 L60,180 Z M60,180" id="Rectangle-1" opacity="0.1" fill="#A9E472" sketch:type="MSShapeGroup" x="60" y="180" width="50" height="50"></rect>
        <rect d="M0,180 L0,230 L50,230 L50,180 L0,180 Z M0,180" id="Rectangle-1" opacity="0.1" fill="#A9E472" sketch:type="MSShapeGroup" x="0" y="180" width="50" height="50"></rect>
        <rect d="M600,180 L600,230 L650,230 L650,180 L600,180 Z M600,180" id="Rectangle-1" opacity="0.1" fill="#A9E472" sketch:type="MSShapeGroup" x="600" y="180" width="50" height="50"></rect>
        <rect d="M540,180 L540,230 L590,230 L590,180 L540,180 Z M540,180" id="Rectangle-1" opacity="0.1" fill="#A9E472" sketch:type="MSShapeGroup" x="540" y="180" width="50" height="50"></rect>
        <rect d="M480,180 L480,230 L530,230 L530,180 L480,180 Z M480,180" id="Rectangle-1" opacity="0.1" fill="#A9E472" sketch:type="MSShapeGroup" x="480" y="180" width="50" height="50"></rect>
        <rect d="M360,180 L360,230 L410,230 L410,180 L360,180 Z M360,180" id="Rectangle-1" opacity="0.1" fill="#A9E472" sketch:type="MSShapeGroup" x="360" y="180" width="50" height="50"></rect>
        <rect d="M300,180 L300,230 L350,230 L350,180 L300,180 Z M300,180" id="Rectangle-1" opacity="0.1" fill="#A9E472" sketch:type="MSShapeGroup" x="300" y="180" width="50" height="50"></rect>
        <rect d="M240,180 L240,230 L290,230 L290,180 L240,180 Z M240,180" id="Rectangle-1" opacity="0.1" fill="#A9E472" sketch:type="MSShapeGroup" x="240" y="180" width="50" height="50"></rect>
        <rect d="M840,180 L840,230 L890,230 L890,180 L840,180 Z M840,180" id="Rectangle-1" opacity="0.1" fill="#A9E472" sketch:type="MSShapeGroup" x="840" y="180" width="50" height="50"></rect>
        <rect d="M780,180 L780,230 L830,230 L830,180 L780,180 Z M780,180" id="Rectangle-1" opacity="0.1" fill="#A9E472" sketch:type="MSShapeGroup" x="780" y="180" width="50" height="50"></rect>
        <rect d="M720,180 L720,230 L770,230 L770,180 L720,180 Z M720,180" id="Rectangle-1" opacity="0.1" fill="#A9E472" sketch:type="MSShapeGroup" x="720" y="180" width="50" height="50"></rect>
        <rect d="M180,900 L180,950 L230,950 L230,900 L180,900 Z M180,900" id="Rectangle-1" opacity="0.1" fill="#A9E472" sketch:type="MSShapeGroup" x="180" y="900" width="50" height="50"></rect>
        <rect d="M120,900 L120,950 L170,950 L170,900 L120,900 Z M120,900" id="Rectangle-1" opacity="0.1" fill="#A9E472" sketch:type="MSShapeGroup" x="120" y="900" width="50" height="50"></rect>
        <rect d="M60,900 L60,950 L110,950 L110,900 L60,900 Z M60,900" id="Rectangle-1" opacity="0.1" fill="#A9E472" sketch:type="MSShapeGroup" x="60" y="900" width="50" height="50"></rect>
        <rect d="M0,900 L0,950 L50,950 L50,900 L0,900 Z M0,900" id="Rectangle-1" opacity="0.1" fill="#A9E472" sketch:type="MSShapeGroup" x="0" y="900" width="50" height="50"></rect>
        <rect d="M600,900 L600,950 L650,950 L650,900 L600,900 Z M600,900" id="Rectangle-1" opacity="0.1" fill="#A9E472" sketch:type="MSShapeGroup" x="600" y="900" width="50" height="50"></rect>
        <rect d="M540,900 L540,950 L590,950 L590,900 L540,900 Z M540,900" id="Rectangle-1" opacity="0.1" fill="#A9E472" sketch:type="MSShapeGroup" x="540" y="900" width="50" height="50"></rect>
        <rect d="M600,960 L600,1010 L650,1010 L650,960 L600,960 Z M600,960" id="Rectangle-1" fill="#A9E472" sketch:type="MSShapeGroup" x="600" y="960" width="50" height="50"></rect>
        <rect d="M600,1020 L600,1070 L650,1070 L650,1020 L600,1020 Z M600,1020" id="Rectangle-1" fill="#A9E472" sketch:type="MSShapeGroup" x="600" y="1020" width="50" height="50"></rect>
        <rect d="M480,900 L480,950 L530,950 L530,900 L480,900 Z M480,900" id="Rectangle-1" opacity="0.1" fill="#A9E472" sketch:type="MSShapeGroup" x="480" y="900" width="50" height="50"></rect>
        <rect d="M360,900 L360,950 L410,950 L410,900 L360,900 Z M360,900" id="Rectangle-1" opacity="0.1" fill="#A9E472" sketch:type="MSShapeGroup" x="360" y="900" width="50" height="50"></rect>
        <rect d="M300,900 L300,950 L350,950 L350,900 L300,900 Z M300,900" id="Rectangle-1" opacity="0.1" fill="#A9E472" sketch:type="MSShapeGroup" x="300" y="900" width="50" height="50"></rect>
        <rect d="M240,900 L240,950 L290,950 L290,900 L240,900 Z M240,900" id="Rectangle-1" opacity="0.1" fill="#A9E472" sketch:type="MSShapeGroup" x="240" y="900" width="50" height="50"></rect>
        <rect d="M60,1020 L60,1070 L110,1070 L110,1020 L60,1020 Z M60,1020" id="Rectangle-1" fill="#A9E472" sketch:type="MSShapeGroup" x="60" y="1020" width="50" height="50"></rect>
        <rect d="M180,960 L180,1010 L230,1010 L230,960 L180,960 Z M180,960" id="Rectangle-1" opacity="0.1" fill="#A9E472" sketch:type="MSShapeGroup" x="180" y="960" width="50" height="50"></rect>
        <rect d="M180,1020 L180,1070 L230,1070 L230,1020 L180,1020 Z M180,1020" id="Rectangle-1" opacity="0.1" fill="#A9E472" sketch:type="MSShapeGroup" x="180" y="1020" width="50" height="50"></rect>
        <rect d="M180,1080 L180,1130 L230,1130 L230,1080 L180,1080 Z M180,1080" id="Rectangle-1" opacity="0.1" fill="#A9E472" sketch:type="MSShapeGroup" x="180" y="1080" width="50" height="50"></rect>
        <rect d="M420,900 L420,950 L470,950 L470,900 L420,900 Z M420,900" id="Rectangle-1" opacity="0.1" fill="#A9E472" sketch:type="MSShapeGroup" x="420" y="900" width="50" height="50"></rect>
        <rect d="M420,960 L420,1010 L470,1010 L470,960 L420,960 Z M420,960" id="Rectangle-1" opacity="0.1" fill="#A9E472" sketch:type="MSShapeGroup" x="420" y="960" width="50" height="50"></rect>
        <rect d="M420,1020 L420,1070 L470,1070 L470,1020 L420,1020 Z M420,1020" id="Rectangle-1" opacity="0.1" fill="#A9E472" sketch:type="MSShapeGroup" x="420" y="1020" width="50" height="50"></rect>
        <rect d="M420,1080 L420,1130 L470,1130 L470,1080 L420,1080 Z M420,1080" id="Rectangle-1" opacity="0.1" fill="#A9E472" sketch:type="MSShapeGroup" x="420" y="1080" width="50" height="50"></rect>
        <rect d="M660,900 L660,950 L710,950 L710,900 L660,900 Z M660,900" id="Rectangle-1" opacity="0.1" fill="#A9E472" sketch:type="MSShapeGroup" x="660" y="900" width="50" height="50"></rect>
        <rect d="M660,960 L660,1010 L710,1010 L710,960 L660,960 Z M660,960" id="Rectangle-1" opacity="0.1" fill="#A9E472" sketch:type="MSShapeGroup" x="660" y="960" width="50" height="50"></rect>
        <rect d="M660,1020 L660,1070 L710,1070 L710,1020 L660,1020 Z M660,1020" id="Rectangle-1" opacity="0.1" fill="#A9E472" sketch:type="MSShapeGroup" x="660" y="1020" width="50" height="50"></rect>
        <rect d="M660,1080 L660,1130 L710,1130 L710,1080 L660,1080 Z M660,1080" id="Rectangle-1" opacity="0.1" fill="#A9E472" sketch:type="MSShapeGroup" x="660" y="1080" width="50" height="50"></rect>
        <rect d="M0,960 L0,1010 L110,1010 L110,960 L0,960 Z M0,960" id="Rectangle-1" fill="#69CA14" sketch:type="MSShapeGroup" x="0" y="960" width="110" height="50"></rect>
        <rect d="M120,960 L120,1010 L170,1010 L170,960 L120,960 Z M120,960" id="Rectangle-1" fill="#A9E472" sketch:type="MSShapeGroup" x="120" y="960" width="50" height="50"></rect>
        <rect d="M120,1020 L120,1070 L170,1070 L170,1020 L120,1020 Z M120,1020" id="Rectangle-1" fill="#A9E472" sketch:type="MSShapeGroup" x="120" y="1020" width="50" height="50"></rect>
        <rect d="M0,1080 L0,1130 L110,1130 L110,1080 L0,1080 Z M0,1080" id="Rectangle-1" fill="#69CA14" sketch:type="MSShapeGroup" x="0" y="1080" width="110" height="50"></rect>
        <rect d="M0,1020 L0,1070 L50,1070 L50,1020 L0,1020 Z M0,1020" id="Rectangle-1" fill="#A9E472" sketch:type="MSShapeGroup" x="0" y="1020" width="50" height="50"></rect>
        <rect d="M120,1080 L120,1130 L170,1130 L170,1080 L120,1080 Z M120,1080" id="Rectangle-1" fill="#A9E472" sketch:type="MSShapeGroup" x="120" y="1080" width="50" height="50"></rect>
        <rect d="M240,960 L240,1010 L290,1010 L290,960 L240,960 Z M240,960" id="Rectangle-1" fill="#69CA14" sketch:type="MSShapeGroup" x="240" y="960" width="50" height="50"></rect>
        <rect d="M240,1020 L240,1070 L290,1070 L290,1020 L240,1020 Z M240,1020" id="Rectangle-1" fill="#69CA14" sketch:type="MSShapeGroup" x="240" y="1020" width="50" height="50"></rect>
        <rect d="M300,960 L300,1130 L410,1130 L410,960 L300,960 Z M300,960" id="Rectangle-1" fill="#A9E472" sketch:type="MSShapeGroup" x="300" y="960" width="110" height="170"></rect>
        <rect d="M240,1080 L240,1130 L290,1130 L290,1080 L240,1080 Z M240,1080" id="Rectangle-1" fill="#69CA14" sketch:type="MSShapeGroup" x="240" y="1080" width="50" height="50"></rect>
        <rect d="M480,960 L480,1010 L590,1010 L590,960 L480,960 Z M480,960" id="Rectangle-1" fill="#69CA14" sketch:type="MSShapeGroup" x="480" y="960" width="110" height="50"></rect>
        <rect d="M480,1020 L480,1070 L590,1070 L590,1020 L480,1020 Z M480,1020" id="Rectangle-1" fill="#69CA14" sketch:type="MSShapeGroup" x="480" y="1020" width="110" height="50"></rect>
        <rect d="M480,1080 L480,1130 L590,1130 L590,1080 L480,1080 Z M480,1080" id="Rectangle-1" fill="#69CA14" sketch:type="MSShapeGroup" x="480" y="1080" width="110" height="50"></rect>
        <rect d="M600,1080 L600,1130 L650,1130 L650,1080 L600,1080 Z M600,1080" id="Rectangle-1" fill="#A9E472" sketch:type="MSShapeGroup" x="600" y="1080" width="50" height="50"></rect>
        <rect d="M840,960 L840,1130 L890,1130 L890,960 L840,960 Z M840,960" id="Rectangle-1" fill="#A9E472" sketch:type="MSShapeGroup" x="840" y="960" width="50" height="170"></rect>
        <rect d="M720,960 L720,1130 L830,1130 L830,960 L720,960 Z M720,960" id="Rectangle-1" fill="#69CA14" sketch:type="MSShapeGroup" x="720" y="960" width="110" height="170"></rect>
        <rect d="M840,900 L840,950 L890,950 L890,900 L840,900 Z M840,900" id="Rectangle-1" opacity="0.1" fill="#A9E472" sketch:type="MSShapeGroup" x="840" y="900" width="50" height="50"></rect>
        <rect d="M780,900 L780,950 L830,950 L830,900 L780,900 Z M780,900" id="Rectangle-1" opacity="0.1" fill="#A9E472" sketch:type="MSShapeGroup" x="780" y="900" width="50" height="50"></rect>
        <rect d="M720,900 L720,950 L770,950 L770,900 L720,900 Z M720,900" id="Rectangle-1" opacity="0.1" fill="#A9E472" sketch:type="MSShapeGroup" x="720" y="900" width="50" height="50"></rect>
    </g>
</svg>